<?xml version="1.0" encoding="utf-8"?>
<!-- Generator: Adobe Illustrator 23.0.0, SVG Export Plug-In . SVG Version: 6.00 Build 0)  -->
<svg version="1.1" id="Layer_1" xmlns="http://www.w3.org/2000/svg" xmlns:xlink="http://www.w3.org/1999/xlink" x="0px" y="0px"
	 viewBox="0 0 612 792" style="enable-background:new 0 0 612 792;" xml:space="preserve">
<style type="text/css">
	.st0{fill:#EAF7FD;}
	.st1{fill:#52A2D9;}
	.st2{fill:#7FACB2;}
</style>
<path id="Blob_2" class="st0" d="M383.27,265.39c1.02,4.5,2.49,8.88,4.38,13.09c15.36,34.1,56.69,49.71,90.76,34.28
	c2.27-1.03,4.49-2.18,6.64-3.45c17.34-10.24,37.34-15.31,57.38-13.35c9.17,0.9,18.41-0.61,26.82-4.37
	c26.57-11.84,38.84-44.03,26.89-70.55c-1.6-3.57-3.6-6.94-5.94-10.07c-10.32-13.93-14.44-31.49-11.42-48.56
	c2.31-13.44,0.61-27.26-4.88-39.74c-11.07-25.28-40.88-45.48-72.13-42c-22.51,2.51-45.33-1.56-65.05-12.71
	c-20.99-11.92-46.4-13.14-68.44-3.29c-37.09,16.54-54.9,61.55-39.09,98.96c3.29,7.82,7.86,15.03,13.53,21.33
	C363.14,207.65,376.54,235.62,383.27,265.39z"/>
<path id="Blob_1" class="st1" d="M90.63,162.37c-4.59-0.5-9.21-0.54-13.8-0.11c-37.24,3.42-65.46,37.43-61.96,74.67
	c0.23,2.49,0.6,4.96,1.1,7.4c4.04,19.73,2.33,40.3-6.05,58.61c-3.83,8.38-5.42,17.61-4.6,26.79c2.55,28.98,29,51.06,57.97,48.39
	c3.89-0.36,7.74-1.14,11.46-2.34c16.53-5.22,34.48-3.41,49.64,5.01c11.96,6.55,25.58,9.45,39.17,8.32
	c27.51-2.24,56.32-23.86,63.19-54.54c4.95-22.11,16.23-42.36,33.19-57.38c18.1-15.97,27.53-39.61,25.39-63.65
	c-3.57-40.46-40.34-71.94-80.86-69.18c-8.46,0.57-16.77,2.54-24.58,5.85C151.78,162.12,120.97,165.69,90.63,162.37z"/>
<path id="Blob_2-2" class="st2" d="M269.74,482.17c-2.39,3.94-4.38,8.12-5.94,12.46c-12.65,35.2,6.22,75.16,41.45,87.74
	c2.35,0.84,4.75,1.55,7.17,2.13c19.59,4.69,37.5,14.94,50.55,30.28c5.97,7.02,13.67,12.36,22.33,15.5
	c27.34,9.95,58.54-4.68,68.37-32.06c1.32-3.68,2.24-7.49,2.73-11.37c2.26-17.19,11.5-32.69,25.54-42.86
	c11-8.06,19.39-19.18,24.11-31.98c9.61-25.88,2.21-61.13-22.69-80.34c-17.94-13.84-31.52-32.63-37.95-54.36
	c-6.82-23.16-24.24-41.7-46.94-49.94c-38.18-13.88-82.27,6.12-96.9,44.01c-3.07,7.91-4.79,16.27-5.1,24.75
	C295.39,426.65,285.58,456.08,269.74,482.17z"/>
</svg>
