<?xml version="1.0" encoding="utf-8"?>
<!-- Generator: Adobe Illustrator 23.0.0, SVG Export Plug-In . SVG Version: 6.00 Build 0)  -->
<svg version="1.1" id="Layer_1" xmlns="http://www.w3.org/2000/svg" xmlns:xlink="http://www.w3.org/1999/xlink" x="0px" y="0px"
	 viewBox="0 0 612 792" style="enable-background:new 0 0 612 792;" xml:space="preserve">
<style type="text/css">
	.st0{fill-rule:evenodd;clip-rule:evenodd;fill:#8A5838;}
	.st1{fill-rule:evenodd;clip-rule:evenodd;fill:#F8A28F;}
	.st2{fill-rule:evenodd;clip-rule:evenodd;fill:#04213E;}
	.st3{fill-rule:evenodd;clip-rule:evenodd;fill:#295364;}
	.st4{fill-rule:evenodd;clip-rule:evenodd;fill:#D55147;}
	.st5{fill-rule:evenodd;clip-rule:evenodd;fill:#70322A;}
	.st6{fill-rule:evenodd;clip-rule:evenodd;fill:#61C6D0;}
	.st7{fill-rule:evenodd;clip-rule:evenodd;fill:#42809F;}
	.st8{fill-rule:evenodd;clip-rule:evenodd;fill:#315F72;}
	.st9{fill:#42809F;}
	.st10{fill-rule:evenodd;clip-rule:evenodd;fill:#3A577B;}
	.st11{fill-rule:evenodd;clip-rule:evenodd;fill:#D6EFFC;}
	.st12{fill-rule:evenodd;clip-rule:evenodd;fill:#F5998A;}
	.st13{fill-rule:evenodd;clip-rule:evenodd;fill:#BA7F87;}
	.st14{fill-rule:evenodd;clip-rule:evenodd;fill:#EB7F58;}
	.st15{fill:#EB7F58;}
	.st16{fill-rule:evenodd;clip-rule:evenodd;fill:#283C52;}
	.st17{fill-rule:evenodd;clip-rule:evenodd;fill:#666766;}
	.st18{fill-rule:evenodd;clip-rule:evenodd;}
	.st19{fill-rule:evenodd;clip-rule:evenodd;fill:#30261A;}
	.st20{fill:#3A577B;}
	.st21{fill-rule:evenodd;clip-rule:evenodd;fill:#E68541;}
</style>
<g id="Boy_Illustration" transform="translate(-863.771 -235.63)">
	<path id="Path_24" class="st0" d="M1100.48,551.08l8.34,0.25l7.72,26.41l-7.9,0.87L1100.48,551.08L1100.48,551.08z"/>
	<path id="Path_25" class="st1" d="M1043.17,424.97c-0.79-1.5-1.17-2.69-2.21-1.87c-2.02,1.6,0.81,7.63,2.9,8.98
		c0.09,0.06,0.26,0.17,0.47,0.3c0.75,4.98,3.09,8.9,8.16,10.87c-0.07,2.78,0.42,4.67-1.72,7c-2.93,3.19-24.59,12.57-21.48,12.85
		c8.27,23.85,56.92,27.52,59.53-0.3c-1.32-1.85-22.51-12.01-23.8-22.83c1.9-1.47,3.47-4.05,4.72-6.98c0.56-0.22,1.1-0.5,1.6-0.84
		c2.16-1.36,5.29-7.38,3.34-8.98c-0.62-0.51-1.42,0.12-2.14,1.03c0.29-1.22,0.53-2.37,0.73-3.4
		C1075.82,407.52,1045.06,394.97,1043.17,424.97L1043.17,424.97z"/>
	<path id="Path_26" class="st2" d="M1014.57,584.23c-7.45,0-13.57,3.2-13.67,7.15s5.86,7.15,13.32,7.15s13.57-3.2,13.67-7.15
		S1022.03,584.23,1014.57,584.23z"/>
	<path id="Path_27" class="st3" d="M1024.17,462.25c-15.04,30.18-61.65,131.12-5.34,131.12c11.46,0,28.1-60.7,25.49-71.62
		c-3.16-13.23,5.11-14.31-7.13-39.3C1034.16,476.29,1030.29,464.33,1024.17,462.25L1024.17,462.25z"/>
	<path id="Path_28" class="st4" d="M1050.38,564.05l-7.34,49.94l-48.97-8.55l9.33-51.53L1050.38,564.05L1050.38,564.05z"/>
	<path id="Path_29" class="st5" d="M1003.41,553.91l-9.33,51.53l-4.7-4.97l9.24-45.79L1003.41,553.91L1003.41,553.91z"/>
	<path id="Path_32" class="st6" d="M1020.88,769.57l0.33,0.67c7.77,1.62,27.46,2.51,28.1-3.1l9.71-154.23
		c6.03,49.41,8.63,99.16,13.51,148.69c0.18,1.8,0.36,3.6,0.58,5.4c0.15,1.22,0.21,3.29,1.82,3.29c3.94,0,22.28,3.76,23.63-2.96
		c4.54-22.42,3.44-87.45,3.97-111.56c0.3-13.42,0.39-26.85,0.14-40.25c-0.21-11.66-0.66-23.39-1.66-34.99l0.01,0.01l-0.29-2.98
		c-0.85-8.83-2.08-18.9-4.73-27.26c-1.43-4.5-4.2-11.36-9.37-11.62c-3.38-0.17-6.88-0.13-10.27-0.14
		c-5.64-0.02-11.28-0.01-16.92,0.02c-6.38,0.03-12.77,0.08-19.15,0.14c-2.11,0.02-4.22,0.05-6.33,0.09
		c-1.05,0.02-3.25-0.25-3.83,1.09C1008.55,589.74,1020.46,768.74,1020.88,769.57L1020.88,769.57z"/>
	<path id="Path_33" class="st7" d="M1100.37,554.04h-77.43l-0.43,17.1h77.43L1100.37,554.04z"/>
	<path id="Path_34" class="st8" d="M1020.75,564.7c-20.3-2.89,1.71-99.1,3.42-102.44l24.33-10.15c-0.93,3.39,3.69,20.22,11.97,20.02
		l0,0c8.27,0.21,13.73-16.63,12.97-20.02l23.82,10.15c1.54,3.34,23.75,102.66,3.3,105.54
		C1099.47,567.71,1021.84,564.61,1020.75,564.7L1020.75,564.7z"/>
	<path id="Path_35" class="st9" d="M1058.58,615.47c0.04,0.25,0.27,0.41,0.52,0.37c0.01,0,0.02,0,0.03-0.01
		c0.25-0.09,0.4-0.36,0.33-0.62l-6.01-26.11c-0.04-0.25-0.27-0.41-0.52-0.37c-0.01,0-0.02,0-0.03,0.01
		c-0.25,0.09-0.4,0.36-0.33,0.62L1058.58,615.47z"/>
	<path id="Path_36" class="st10" d="M1034.02,506.64h14.43l0.77-31.13h-20.41l-0.77,31.13H1034.02z"/>
	<path id="Path_37" class="st11" d="M1035.6,504.92h11.35l0.69-27.69h-11.35L1035.6,504.92L1035.6,504.92z M1040.36,499.87
		l0.44-17.59h2.21l-0.44,17.59H1040.36z M1029.63,504.92h4.34l0.69-27.69h-4.34L1029.63,504.92L1029.63,504.92z"/>
	<path id="Path_38" class="st12" d="M997.68,605.15c-0.56,2,6.54,6.13,9.73,6.13c3.76,0,6.46-1.6,7.9-5.67
		c0.51-1.44,1.2-4.21-0.03-5.2c-1.74-1.4-1.93,1.08-1.81-0.98c0.09-1.45-2.19-2.19-2.54-0.52c-0.25,0.06,0.31-1.9-1.28-2.41
		c-4.22-1.37-3.46,11.51-7.29,10.01c-0.14-0.88,1.51-5.88,1.63-7.78C1004.22,594.86,996.47,609.44,997.68,605.15L997.68,605.15z"/>
	<path id="Path_39" class="st13" d="M1036.33,457.18l1.95-0.81l41.85,127.27l-10.54,2.08L1036.33,457.18L1036.33,457.18z"/>
	<path id="Path_40" class="st14" d="M1052.03,443.07c4.98,1.99,12.59-1.83,12.98-3.17c-0.37,1.18-1.06,17.67-12.58,6.89
		c0.13-1.07,0.03-2.2,0.07-3.52C1052.33,443.2,1052.18,443.14,1052.03,443.07L1052.03,443.07z"/>
	<path id="Path_41" class="st15" d="M1056.89,421.31c0.03-0.37-0.25-0.7-0.62-0.74c-0.01,0-0.01,0-0.02,0
		c-0.39,0.02-0.69,0.35-0.68,0.74c-0.01,0.36-0.12,1.25-0.26,2.17c-0.15,1.04-0.33,2.1-0.43,2.52c-0.11,0.47-0.16,0.95-0.15,1.43
		c-0.02,0.44,0.12,0.86,0.4,1.2c0.38,0.43,0.91,0.71,1.47,0.8c0.55,0.04,1.11-0.07,1.61-0.31c0.36-0.17,0.53-0.57,0.42-0.94
		c-0.08-0.34-0.42-0.54-0.76-0.46c-0.03,0.01-0.05,0.01-0.08,0.02c-0.32,0.16-0.67,0.24-1.02,0.23c-0.3-0.06-0.57-0.22-0.77-0.46
		c-0.03-0.03,0.03-0.05,0.03-0.17c0-0.34,0.03-0.67,0.1-1c0.11-0.47,0.31-1.59,0.46-2.67
		C1056.76,422.68,1056.88,421.71,1056.89,421.31L1056.89,421.31z"/>
	<path id="Path_42" class="st16" d="M1061.31,419.8c-0.44,0-0.81,0.6-0.83,1.34s0.32,1.34,0.76,1.34s0.81-0.6,0.82-1.34
		S1061.74,419.8,1061.31,419.8L1061.31,419.8z"/>
	<path id="Path_43" class="st16" d="M1051.07,419.8c-0.44,0-0.81,0.6-0.82,1.34s0.32,1.34,0.76,1.34s0.81-0.6,0.82-1.34
		S1051.51,419.8,1051.07,419.8z"/>
	<path id="Path_44" class="st16" d="M1042.81,408.17c-1.85-1.5-6.03-9.95-1.21-15.03c0.61-0.65-0.45-0.45,1.36,1.21
		c1.17,1.07,6.61,4.59,5.87,3.23l-2.76-5.05c-0.39-0.72,9.03-1.28,17.25,2.46c0.73-2.14-2.64-3.1,2.19-1.02
		c11.68,5.03,11.28,18.55,7.85,29.38c-0.26,0.39-6.24,9.71-3.34,2.33c4.06-10.3-3.96-18.58-11.66-13.22
		c-1.8,1.25-4.38-0.81-6.6-1.89c-5.05,1.82-8.78,6.74-7.74,16.51c0.09,0.86-0.87-0.39-0.93-0.51
		C1041.08,421.77,1039.9,412.53,1042.81,408.17L1042.81,408.17z"/>
	<path id="Path_45" class="st11" d="M1051.5,431.26c1.18,1.27,7.77,3.5,10.09,0.71c0.3-0.35-3.52,8.16-9.18,2.01
		C1051.95,433.47,1050.58,430.27,1051.5,431.26L1051.5,431.26z"/>
	<path id="Path_46" class="st17" d="M1048.7,452.58c-12.85,5.88-9.22,19.8-11.03,22.99c-1.04,1.82-0.41,4.14,1.41,5.19
		c0.22,0.13,0.46,0.23,0.71,0.31c-0.63-3.04-0.99-2.99-0.26-6.53c0.79-3.81,2.56-2.68,2.51-7.98c-0.05-4.51,6.23-9.08,6.44-9.61
		C1048.7,455.5,1048.77,454.03,1048.7,452.58L1048.7,452.58z"/>
	<path id="Path_47" class="st18" d="M1043.87,468.96c-2.89,0-5.34,4.15-5.47,9.27s2.11,9.27,5.01,9.27s5.34-4.15,5.47-9.27
		S1046.76,468.96,1043.87,468.96z"/>
	<path id="Path_48" class="st18" d="M1072.41,472.88c-3.43-2.41-8.69-0.92-11.74,3.32s-2.76,9.63,0.67,12.04s8.69,0.92,11.74-3.32
		S1075.83,475.29,1072.41,472.88L1072.41,472.88z"/>
	<path id="Path_49" class="st19" d="M1045.13,472.26c-1.47,0-2.73,2.52-2.81,5.63s1.06,5.63,2.53,5.63s2.73-2.52,2.81-5.63
		S1046.6,472.26,1045.13,472.26L1045.13,472.26z"/>
	<path id="Path_50" class="st17" d="M1074.23,461.82c2.14,5.96,0.96,8.9-3.22,12.4c-0.45-0.14-0.91-0.21-1.38-0.21
		c-2.96,0.16-5.26,2.63-5.22,5.59c-0.08,3.22,2.02,5.59,4.94,5.59c2.96-0.16,5.26-2.63,5.22-5.59c0.03-1.06-0.22-2.11-0.74-3.03
		c-0.02-0.33,0-0.66,0.06-0.99c3.18-6.19,7.03-12.39,1.76-19.88l-0.15,6.12L1074.23,461.82z"/>
	<path id="Path_51" class="st3" d="M1052.43,446.79c-4.47,17.23,6.66,16.56,6.3,31.11c-1.51-5.3-23.61-14.63-20.06-23.67
		C1040.57,449.4,1054.71,437.97,1052.43,446.79L1052.43,446.79z"/>
	<path id="Path_52" class="st3" d="M1057.05,475.33c1.22-0.81,0.69-1.63,0.73-3.27c0.09-3.51,2.16-5.58,4.2-7.8
		c5.83-6.33,12.09-7.96,6.24-16.62c-0.01-0.02-3.53-5.78-2.35-4.91c2.33,1.71,3.05,1.82,5.89,2.13c1.1,0.18,2.02,0.94,2.39,2
		c0.8,2.75,0.09,1.87,2.93,3.06c1.43,0.6,1.29,3.86,1.42,5.44c0.43,5.05-2.6,12.57-7.12,14.07c-3.41,1.14-11.26,2.98-12.71,7.34
		C1058.18,476.64,1057.84,474.81,1057.05,475.33L1057.05,475.33z"/>
	<path id="Path_53" class="st20" d="M1075.46,449.01c-0.02-0.26-0.24-0.45-0.5-0.43c-0.01,0-0.01,0-0.02,0
		c-0.26,0.06-0.43,0.31-0.39,0.58c1.38,10.47-4.72,14.66-10.03,18.31c-2.63,1.81-5.08,3.49-6.45,5.76
		c-0.14,0.23-0.09,0.53,0.12,0.71c0.19,0.14,0.45,0.1,0.6-0.08c0.01-0.02,0.02-0.03,0.03-0.05c1.26-2.08,3.63-3.71,6.17-5.46
		C1070.55,464.52,1076.92,460.14,1075.46,449.01L1075.46,449.01z"/>
	<path id="Path_54" class="st20" d="M1043.2,449.27c0.01-0.27-0.21-0.49-0.47-0.49h0c-0.27,0.03-0.46,0.26-0.44,0.53
		c-0.02,0.43-0.08,0.86-0.2,1.28c-0.51,1.77-0.48,3.65,0.1,5.39c1.59,4.85,3.15,6.02,6.11,8.26c0.51,0.38,1.07,0.8,1.73,1.33
		c0.98,0.77,1.55,1.23,2.07,1.71s1.04,1.03,1.93,1.98c0.16,0.17,0.42,0.19,0.6,0.03c0.02-0.02,0.03-0.03,0.05-0.05
		c0.17-0.21,0.17-0.52-0.01-0.72c-0.9-0.97-1.43-1.52-1.98-2.04s-1.13-0.98-2.12-1.76c-0.6-0.47-1.2-0.92-1.75-1.34
		c-2.8-2.11-4.28-3.22-5.76-7.76c-0.5-1.55-0.53-3.22-0.07-4.79C1043.11,450.33,1043.19,449.8,1043.2,449.27L1043.2,449.27z"/>
	<path id="Path_55" class="st20" d="M1048.28,445.18c0.15-0.23,0.11-0.53-0.09-0.71c-0.18-0.15-0.45-0.13-0.6,0.05
		c-0.01,0.02-0.03,0.04-0.04,0.05c-4.01,5.93-2.54,9.05-0.95,12.43c0.63,1.23,1.12,2.52,1.46,3.85c0.04,0.25,0.27,0.42,0.52,0.38
		c0.01,0,0.02,0,0.03-0.01c0.26-0.09,0.4-0.36,0.33-0.62c-0.36-1.41-0.88-2.78-1.54-4.08
		C1045.96,453.44,1044.63,450.6,1048.28,445.18L1048.28,445.18z"/>
	<path id="Path_56" class="st12" d="M1076.1,522.72c-1.51,1.96-6.02,1.41-7.93-0.83c-0.01-0.02-1.4-1.26-1.44-1.28
		c-0.02-0.22-3.88-4.45-5.52-4.45c-1.83,0-7.65-0.04-8.39,1.89c-0.94,2.44-3.28,10.09-3,12.55c0.04,0.33,1.56,0.73,2.56-1.11
		c1.15-2.14-0.45,1.58,0.65,1.9c0.04,0.22,1.51,0.59,1.51-0.66c0,0.94,1.68,1.83,2.96-0.8c0.57-1.17,3.7-1.21,4.49-0.03
		c1.43,1.67,3.44,2.73,5.63,2.98c2.73,0,3.68-0.38,5.76-0.51c1.17-0.07,6.95-0.16,5.6-2.74
		C1078.93,529.55,1077.38,521.05,1076.1,522.72L1076.1,522.72z"/>
	<path id="Path_57" class="st7" d="M1082.19,510.42c-5.56,0-10.07,6.65-10.07,14.85s4.51,14.85,10.07,14.85s10.07-6.65,10.07-14.85
		S1087.75,510.42,1082.19,510.42z"/>
	<path id="Path_58" class="st3" d="M1097.26,462.25c6.26,0.85,25.38,11.86,39.28,37.67c6.28,11.67,19.3,36.96,3.1,45.95
		c-11.41,6.34-60.55,10.56-63.25-7.34c-5.24-34.63-1.48-32.83,24.05-31.74C1109.27,507.18,1088.6,470.77,1097.26,462.25
		L1097.26,462.25z"/>
	<path id="Path_59" class="st21" d="M1129.94,631.4l-13.4-54.97l-46.95,7.98l14.48,55.31L1129.94,631.4L1129.94,631.4z"/>
	<path id="Path_60" class="st0" d="M1069.6,584.41l3.17,53.33l11.31,1.98l-14.16-54.07L1069.6,584.41L1069.6,584.41z"/>
	<path id="Path_61" class="st0" d="M1082.69,617.62l-12.76-31.97l14.16,27.46l33.16-4.34l-0.69-31.04l3.33,35.03L1082.69,617.62
		L1082.69,617.62z"/>
	<path id="Path_74" class="st11" d="M1042.87,674.58c-6.76-4.14-2.16,1.18-5.17,1.19c-3.83,0.01-2.63-5.75-4.84-1.56
		c-0.63,1.18-2.32-3.04-3.6-2.54c-2.07,6.69-1.65-3.28-3.27,1.98c-3.59,1.39-3.4-6.92-3.4,11.33c0,14.66,3.72-7.35,6.1,1.16
		c2.09,7.49,1.97-7.96,7.09,0.35c3.34,5.41,1.15-10.96,5.55-0.03c1.69,4.2,0.91-7.81,2.92-0.97c0.56,1.91,0.95-9.06-0.95-10.12
		C1042.85,675.12,1043.17,674.76,1042.87,674.58L1042.87,674.58z"/>
	<path id="Path_75" class="st11" d="M1093.89,676.59c-6.76-4.14-2.16,1.18-5.17,1.19c-3.83,0.02-2.63-5.75-4.84-1.56
		c-0.63,1.18-2.32-3.04-3.6-2.55c-2.07,6.69-1.65-3.28-3.27,1.98c-3.59,1.39-3.4-6.92-3.4,11.33c0,14.66,3.72-7.35,6.1,1.16
		c2.09,7.49,1.97-7.96,7.09,0.35c3.34,5.41,1.15-10.96,5.55-0.03c1.69,4.2,0.91-7.81,2.92-0.97c0.56,1.92,0.95-9.06-0.95-10.12
		C1093.87,677.13,1094.19,676.77,1093.89,676.59L1093.89,676.59z"/>
</g>
</svg>
