<?xml version="1.0" encoding="utf-8"?>
<!-- Generator: Adobe Illustrator 23.0.0, SVG Export Plug-In . SVG Version: 6.00 Build 0)  -->
<svg version="1.1" id="Layer_1" xmlns="http://www.w3.org/2000/svg" xmlns:xlink="http://www.w3.org/1999/xlink" x="0px" y="0px"
	 viewBox="0 0 612 792" style="enable-background:new 0 0 612 792;" xml:space="preserve">
<style type="text/css">
	.st0{fill:#EB6F72;}
	.st1{opacity:0.2;fill:#F09895;enable-background:new    ;}
	.st2{fill:#F28C8E;}
	.st3{fill:#2F2E41;}
	.st4{fill:#F8A28F;}
	.st5{fill:#585B8A;}
	.st6{fill:#403D56;}
	.st7{fill:#FFFFFF;}
	.st8{fill:#B3B4B4;}
	.st9{fill:#D1CDE1;}
	.st10{opacity:0.2;enable-background:new    ;}
	.st11{fill:#F09895;}
	.st12{fill:#E6E6E6;}
</style>
<g id="undraw_researching_22gp" transform="translate(-23.886 -265.428)">
	<path id="Path_138" class="st0" d="M396.29,697.16c-14.22-2.53-29.76-2.11-46.07,0c7.43-6.27,13.85-12.55,6.41-18.82
		c14.5,2.99,16.53,2.69,32.65,0C385.55,684.61,392.55,690.88,396.29,697.16z"/>
	<path id="Path_139" class="st1" d="M396.29,697.16c-14.22-2.53-29.76-2.11-46.07,0c7.43-6.27,13.85-12.55,6.41-18.82
		c14.5,2.99,16.53,2.69,32.65,0C385.55,684.61,392.55,690.88,396.29,697.16z"/>
	<path id="Path_140" class="st2" d="M392.82,694.48c-12.08-2.02-25.28-1.68-39.13,0c6.31-5.01,11.76-10.02,5.45-15.03
		c12.32,2.39,14.04,2.15,27.74,0C383.7,684.46,389.65,689.47,392.82,694.48z"/>
	<circle id="Ellipse_30" class="st3" cx="388.23" cy="679.98" r="6.43"/>
	<path id="Path_141" class="st4" d="M359.02,672.51l4.46,0.74l2.23,6.44l-6.44,3.96l-7.43-11.14L359.02,672.51L359.02,672.51z"/>
	<circle id="Ellipse_31" class="st4" cx="371.65" cy="672.02" r="10.4"/>
	<path id="Path_142" class="st3" d="M314.19,634.13c0,0-25.26,2.72-29.72,2.23c-2.16-0.2-4.31-0.53-6.44-0.99
		c0,0-2.97,3.96-1.49,5.7c0.83,1,1.84,1.84,2.97,2.48c1.54-0.41,3.16-0.41,4.71,0c1.98,0.74,22.04,3.96,25.51,0.99
		C313.2,641.56,314.19,634.13,314.19,634.13z"/>
	<path id="Path_143" class="st3" d="M315.92,689.36c0,0-16.59-4.71-19.57-25.51v-1.98c0,0-3.28,5.76-4.46,6.93
		c-1.36,1.36-6.19,13.62-5.94,14.86c0.17,0.57,0.17,1.17,0,1.73l-7.18-0.74v-2.23c0,0,3.84-11.52,4.09-14.24s9.54-21.67,9.54-21.67
		s3.47-7.18,9.41,0c5.94,7.18,6.44,12.14,6.44,12.14l7.68,14.86L315.92,689.36z"/>
	<path id="Path_144" class="st3" d="M278.77,634.62l-7.93-2.72c0,0-7.43-5.45-5.7,0c1.73,5.45,9.66,17.34,11.89,16.1
		s4.91-4.31,4.31-4.76C280.75,642.79,276.79,639.57,278.77,634.62z"/>
	<path id="Path_145" class="st3" d="M279.73,680.96l-6.4,3.13c0,0-7.74,1.19-3.42,3.42s16.22,4.61,16.81,2.53s0.36-5.54-0.27-5.45
		S281.51,685.13,279.73,680.96z"/>
	<path id="Path_146" class="st5" d="M312.7,673.01c0,0-3.22,13.87,2.23,16.84s43.59,3.47,46.56-1.98s1.49-5.45,1.49-5.45l-7.93-8.92
		l6.44-0.5c-0.04-1.21-1.02-2.19-2.23-2.23c-2.23-0.25-9.16-2.72-15.11-0.99s-9.41-3.47-9.41-3.47L312.7,673.01z"/>
	<path id="Path_147" class="st6" d="M308.49,629.67l-4.21,23.03l28.98-3.47l5.2-20.8L308.49,629.67z"/>
	<path id="Path_148" class="st7" d="M309.36,630.53l-3.47,20.56l26.38-3.1l5.08-18.7L309.36,630.53z"/>
	<path id="Path_149" class="st8" d="M305.27,652.95l-0.99-0.25l-0.5,0.99l7.93,22.04l0.74-0.29l0.24-1.45L305.27,652.95z"/>
	<path id="Path_150" class="st9" d="M304.28,652.45l7.93,23.03l29.97-4.46l-8.92-21.8L304.28,652.45z"/>
	<path id="Path_151" class="st6" d="M308.24,651.71v1.24l22.04-2.48l-0.25-1.24L308.24,651.71z"/>
	<path id="Path_152" class="st6" d="M308.74,654.19l3.47,9.66l22.54-2.72l-3.96-9.16L308.74,654.19z"/>
	<path id="Path_153" class="st4" d="M336.98,667.81l-0.74-1.98c0,0-5.7-9.91-8.67-7.93s6.19,11.64,6.19,11.64h2.97L336.98,667.81z"
		/>
	<path id="Path_154" class="st4" d="M318.15,669.29l-0.74-2.97c0,0-1.98-9.16,1.49-8.67s4.46,9.16,4.46,9.16l-0.25,1.98
		L318.15,669.29z"/>
	<path id="Path_155" class="st5" d="M324.1,668.06c0,0-6.44-0.99-6.69,0.5s-1.49,23.78,4.71,24.52s36.9,3.96,33.68-3.72
		s-8.17-6.69-8.17-6.69l-21.05,2.23L324.1,668.06z"/>
	<path id="Path_156" class="st5" d="M343.54,670.9l-6.56-4.58l-4.33,3.34l5.45,5.94L343.54,670.9z"/>
	<path id="Path_157" class="st10" d="M325.95,675.36l0.99,9.41l17.09-0.99l-14.86-0.24L325.95,675.36z"/>
	<circle id="Ellipse_32" class="st3" cx="376.78" cy="673.91" r="12.38"/>
	<path id="Path_158" class="st11" d="M313.07,637.72l15.36-0.54l1.49-5.66L314.06,632L313.07,637.72z"/>
	<path id="Path_159" class="st12" d="M309.11,640.94l23.28-0.74l0.25-0.99l-23.28,0.82L309.11,640.94z"/>
	<path id="Path_160" class="st12" d="M308.61,643.41l23.28-0.74l0.25-0.99l-23.28,0.82L308.61,643.41z"/>
	<path id="Path_161" class="st12" d="M308.37,645.39l23.28-0.74l0.25-0.99l-23.28,0.82L308.37,645.39z"/>
</g>
</svg>
